<svg width="40" height="40">
    <path fill="#fff"
        d="M10.374 23.036c.732 0 1.32.588 1.32 1.32v4.072c0 .51.418.928.941.928h5.02V9.078h-5.02a.935.935 0 00-.94.928v4.31a1.328 1.328 0 01-2.655 0v-4.31a3.59 3.59 0 013.595-3.582h5.073a3.234 3.234 0 013.883-2.615l10.773 2.406a3.216 3.216 0 012.523 3.15v19.716c0 1.53-1.033 2.811-2.523 3.151L21.59 34.638c-1.86.413-3.621-.887-3.883-2.628h-5.073a3.59 3.59 0 01-3.595-3.582v-4.072c0-.732.601-1.32 1.334-1.32zm14.433-3.813c0-.954-.784-1.738-1.739-1.738-.209 0-.392.039-.575.104a1.726 1.726 0 00-1.163 1.634c0 .759.483 1.4 1.163 1.635.183.065.366.104.575.104.955 0 1.74-.784 1.74-1.739z" />
    <path fill="#fff"
        d="M3.386 18.14l3.112-2.34a1.356 1.356 0 011.396-.12c.451.227.731.679.731 1.184v.44h3.657c.733.002 1.327 1.18 1.33 1.913 0 .732-.6 1.864-1.33 1.864H8.625v.476c0 .505-.28.97-.732 1.196a1.325 1.325 0 01-1.395-.133l-3.125-2.353a1.329 1.329 0 01-.532-1.063c0-.412.2-.81.545-1.064z" />
</svg>