<svg width="40" height="40" viewBox="0 0 40 40">
   <path fill="#fff"
      d="M36.408 24.594l-2.649-2.264a14.514 14.514 0 000-4.673l2.649-2.264c.41-.35.56-.918.376-1.425l-.036-.105a17.919 17.919 0 00-3.224-5.577l-.072-.085a1.3 1.3 0 00-1.422-.384l-3.288 1.17a14.14 14.14 0 00-4.034-2.329l-.635-3.438a1.298 1.298 0 00-1.045-1.04l-.11-.02a18.25 18.25 0 00-6.43 0l-.11.02c-.53.096-.946.51-1.044 1.04l-.64 3.455a14.313 14.313 0 00-4.005 2.32L7.376 7.817a1.296 1.296 0 00-1.421.384l-.073.085a18.059 18.059 0 00-3.224 5.577l-.036.105a1.3 1.3 0 00.377 1.425l2.68 2.288a14.235 14.235 0 00-.186 2.309c0 .777.06 1.555.186 2.308l-2.672 2.288c-.41.35-.56.918-.377 1.425l.036.106a17.965 17.965 0 003.224 5.576l.073.085a1.3 1.3 0 001.421.385l3.313-1.179a14.023 14.023 0 004.005 2.32l.64 3.455c.098.53.514.944 1.044 1.04l.11.02c2.126.384 4.304.384 6.43 0l.11-.02c.53-.096.947-.51 1.045-1.04l.636-3.438a14.237 14.237 0 004.033-2.329l3.288 1.17c.508.18 1.074.027 1.422-.384l.073-.085a18.058 18.058 0 003.223-5.576l.036-.106a1.307 1.307 0 00-.384-1.417zM19.71 26.708a7.119 7.119 0 117.119-7.119 7.119 7.119 0 01-7.119 7.119z" />
</svg>