<svg width="40" height="40" viewBox="0 0 40 40">
	<circle fill="#fff" stroke-width="2" stroke="gray" cy="20" cx="20" r="18" />
	<path fill="#fc4128"
		d="M11.083 32.26V7.95H22.43c2.505 0 4.534.526 6.085 1.576 1.55 1.05 2.326 2.66 2.326 4.832 0 2.41-1.145 4.165-3.436 5.263 2.77 1.026 4.153 2.984 4.153 5.87 0 2.292-.829 3.993-2.487 5.103-1.66 1.11-3.8 1.665-6.425 1.665zm5.69-14.6h5.26c2.08 0 3.114-.8 3.114-2.362 0-1.6-1.04-2.4-3.114-2.4h-5.262zm0 9.667h5.585c2.34 0 3.508-.86 3.508-2.58 0-.835-.316-1.46-.95-1.88-.632-.417-1.437-.626-2.416-.626h-5.727z" />
</svg>