<svg width="40" height="40" viewBox="0 0 20 20">
   <g>
      <circle fill="#fff" cx="10" cy="10" r="9" stroke-width="1" stroke="gray" />
      <path
         d="m 6.3476562,4.2919922 h 3.3325196 q 2.2778322,0 3.3032222,0.6518555 1.032715,0.6445312 1.032715,2.0581054 0,0.9594727 -0.454101,1.5747071 -0.446778,0.6152343 -1.193848,0.7397461 v 0.073242 q 1.018066,0.2270508 1.464844,0.8496096 0.454101,0.622558 0.454101,1.655273 0,1.464844 -1.062011,2.285157 Q 12.17041,15 10.354004,15 H 6.3476562 Z m 2.2705079,4.2407226 h 1.3183593 q 0.9228516,0 1.3330076,-0.2856445 0.417481,-0.2856445 0.417481,-0.9448242 0,-0.6152344 -0.454102,-0.8789063 Q 10.786133,6.1523437 9.8120117,6.1523437 H 8.6181641 Z m 0,1.8017582 V 13.125 h 1.4794919 q 0.9375,0 1.384278,-0.358887 0.446777,-0.358886 0.446777,-1.098633 0,-1.333007 -1.904297,-1.333007 z"
         fill="#fa3c2d" />
   </g>
</svg>